<?xml version="1.0" encoding="iso-8859-1"?>
<!-- Generator: Adobe Illustrator 19.0.0, SVG Export Plug-In . SVG Version: 6.00 Build 0)  -->
<svg version="1.1" id="Layer_1" xmlns="http://www.w3.org/2000/svg" xmlns:xlink="http://www.w3.org/1999/xlink" x="0px" y="0px"
	 viewBox="0 0 512 512" style="enable-background:new 0 0 512 512;" xml:space="preserve">
<circle style="fill:#6B7F9E;" cx="256" cy="256" r="256"/>
<path style="fill:#FF7069;" d="M106.484,463.863c2.188-0.547,4.558-0.912,6.929-0.912c8.387,0,15.863,4.011,20.422,10.393
	c3.282-11.67,13.858-20.239,26.621-20.239c2.37,0,4.741,0.365,6.929,0.912c1.823-13.128,13.128-23.339,26.803-23.339
	c9.481,0,18.051,4.923,22.792,12.399c5.47-5.105,12.764-8.205,20.786-8.205c9.664,0,18.051,4.558,23.521,11.487
	c4.923-12.581,17.14-21.698,31.544-21.698c17.504,0,31.909,13.311,33.55,30.268c1.459-0.365,3.1-0.365,4.741-0.365
	c8.023,0,15.316,4.011,19.51,10.211c4.741-3.647,10.758-5.835,17.14-5.835c10.393,0,19.328,5.47,24.433,13.858
	c-19.875,12.581-41.755,22.427-64.912,29.174c-8.023-1.276-14.769-6.564-18.051-13.858c-4.923,2.735-10.393,4.194-16.41,4.194
	c-11.487,0-21.698-5.835-27.897-14.769c-4.741,10.211-15.134,17.322-27.35,17.322c-11.487,0-21.516-6.564-26.621-16.046
	c-4.558,3.647-10.576,5.835-16.957,5.835c-2.188,0-4.376-0.182-6.382-0.729c-0.729,6.382-3.829,12.217-8.205,16.41
	c-26.439-8.205-51.054-20.786-73.117-36.467H106.484z M283.168,510.541C274.234,511.453,265.117,512,256,512h-0.182
	c2.006-5.652,7.658-9.846,14.04-9.846C275.692,502.154,280.798,505.618,283.168,510.541z M224.456,509.994
	c-4.741-0.547-9.481-1.276-14.222-2.188c0.182-3.829,3.464-6.746,7.111-6.746c4.011,0,7.293,3.282,7.293,7.293
	C224.638,508.9,224.638,509.447,224.456,509.994z"/>
<g>
	<path style="fill:#5FDC68;" d="M394.028,79.316C127.635,57.983,199.84,305.96,324.194,228.65
		C381.265,193.276,361.937,102.473,394.028,79.316z"/>
	<path style="fill:#5FDC68;" d="M100.832,205.311c172.125-24.251,134.746,124.718,57.801,83.51
		C120.889,268.581,123.442,216.615,100.832,205.311z"/>
</g>
<path style="fill:#FFE356;" d="M239.407,347.897l-4.194,0.182c-15.316-105.026-88.433-113.231-88.615-113.413
	c52.695,8.205,88.798,46.86,92.809,113.048V347.897z"/>
<path style="fill:#5FDC68;" d="M378.165,275.51c-172.125-24.251-134.746,124.718-57.801,83.51
	C358.108,338.781,355.556,286.815,378.165,275.51z"/>
<g>
	<path style="fill:#FFE356;" d="M235.214,400.046l4.194,0.729c29.538-106.849,106.484-105.937,106.849-105.937
		C290.462,296.479,247.977,331.852,235.214,400.046z"/>
	<path style="fill:#FFE356;" d="M365.402,90.439c-144.228,24.251-117.789,258.735-115.054,363.943l-17.322,5.47
		C228.65,361.573,214.61,106.12,365.402,90.439z"/>
</g>
<path style="fill:#F7635B;" d="M120.524,473.162c7.293,0.729,13.493,4.376,17.687,9.846c3.1-11.305,13.493-19.692,25.709-19.692
	c2.37,0,4.558,0.365,6.746,0.912c1.823-12.764,12.764-22.61,25.892-22.61c9.299,0,17.504,4.741,22.063,12.034
	c5.288-4.923,12.217-8.023,20.057-8.023c9.299,0,17.504,4.376,22.792,11.122c4.741-12.217,16.593-20.969,30.632-20.969
	c16.957,0,30.815,12.764,32.638,29.356c1.459-0.365,2.917-0.365,4.558-0.365c7.84,0,14.769,3.829,18.963,9.846
	c4.558-3.464,10.393-5.652,16.593-5.652c7.658,0,14.587,3.1,19.692,8.205c-37.744,21.88-81.687,34.462-128.547,34.462
	c-49.778,0-96.273-14.222-135.476-38.838V473.162z"/>
<g>
</g>
<g>
</g>
<g>
</g>
<g>
</g>
<g>
</g>
<g>
</g>
<g>
</g>
<g>
</g>
<g>
</g>
<g>
</g>
<g>
</g>
<g>
</g>
<g>
</g>
<g>
</g>
<g>
</g>
</svg>
