<?xml version="1.0" encoding="utf-8"?>
<!-- Svg Vector Icons : http://www.onlinewebfonts.com/icon -->
<!DOCTYPE svg PUBLIC "-//W3C//DTD SVG 1.1//EN" "http://www.w3.org/Graphics/SVG/1.1/DTD/svg11.dtd">
<svg version="1.1" xmlns="http://www.w3.org/2000/svg" x="70px" y="70px"
     viewBox="0 0 1000 1000" enable-background="new 0 0 1000 1000" xml:space="preserve">
<metadata> Svg Vector Icons : http://www.onlinewebfonts.com/icon </metadata>
    <g><g transform="translate(0.000000,511.000000) scale(0.100000,-0.100000)"><path d="M4141.2,2439.3l-812.4-907.8l-7.7,211.5l-7.7,211.5h-319.8h-322.4v-577.7V799.1l-482.3-539l-479.7-536.4l389.4-7.7l392-7.8l5.2-667.9l7.7-667.9L3741.5-299.6C4419.8,430.3,4984.6,1026,4992.3,1026c7.7,2.6,294-286.3,637-637l624.1-639.6l2.6,265.6v263h167.6h167.6v-451.3v-453.9l446.2-497.7l443.6-500.3l7.7,667.9l5.2,667.9h373.9c219.2,0,373.9,10.3,373.9,25.8c0,25.8-3234,3592.5-3270.1,3605.4C4961.3,3344.5,4587.4,2939.6,4141.2,2439.3z"/><path
            d="M4063.9-472.3c-502.9-551.9-949-1044.5-987.7-1093.5l-74.8-90.3h190.8l188.3,2.6l799.5,887.1c441,490,804.6,889.7,812.4,889.7c7.7,0,379.1-402.3,825.2-889.7l812.4-889.7h178h177.9l-49,56.8C6753.7-1390.4,5005.2,523.1,4994.9,528.3C4987.1,530.9,4566.8,82.1,4063.9-472.3z"/><path
            d="M4553.9-830.8v-154.7h167.6h167.6v154.7v154.7h-167.6h-167.6V-830.8z"/><path
            d="M5121.2-830.8v-154.7H5276h154.7v154.7v154.7H5276h-154.7V-830.8z"/><path
            d="M4553.9-1269.2V-1424h167.6h167.6v154.7v154.7h-167.6h-167.6V-1269.2z"/><path
            d="M5095.4-1269.2V-1424h167.6h167.6v154.7v154.7h-167.6h-167.6V-1269.2z"/><path
            d="M832.5-2138.3C425-2669.6,94.9-3110.6,100.1-3115.8c5.2-5.1,2212.7-7.7,4905.1-5.1l4894.8,7.7l-745.3,972.3l-745.3,972.2h-314.6l-317.2,2.6V-1540V-1914h-642.2h-644.7L6150.2-1540c-201.2,219.2-361.1,373.9-389.4,373.9c-41.3,0-46.4-25.8-46.4-270.8v-270.8h-722.1h-722.1v270.8c0,219.2-7.7,270.8-38.7,270.8c-20.6,0-190.8-167.6-376.5-373.9L3514.6-1914h-652.5h-655v373.9v373.9h-314.6l-317.2-2.6L832.5-2138.3z"/></g></g>
</svg>