<svg width="70" height="73" xmlns="http://www.w3.org/2000/svg">

 <g>
  <title>Layer 1</title>
  <text xml:space="preserve" text-anchor="start" font-family="Noto Sans JP" font-size="24" id="svg_1" y="25.66188" x="4.94228" stroke-width="0" stroke="#000" fill="#000000">SALE</text>
  <ellipse stroke="#000" ry="15.89591" rx="30.78026" id="svg_2" cy="48.7832" cx="38.32369" fill="#fff"/>
  <line id="svg_4" y2="32.59828" x2="36.44508" y1="41.26877" x1="28.35262" stroke="#000" fill="none"/>
  <line id="svg_5" y2="41.26877" x2="45.69361" y1="33.17631" x1="38.17918" stroke="#000" fill="none"/>
  <line stroke="#000" id="svg_6" y2="36.93353" x2="40.78033" y1="38.66763" x1="43.38147" fill="none"/>
  <path d="m28.35262,41.26878c0.57803,0 0.86705,0 1.15607,0c0.57803,0 0.86705,0 1.44508,0c0.57803,0 1.7341,0 2.60115,0c0.86705,0 1.44508,0 2.31213,0c0.28902,0 0.86705,0 1.15607,0c0.86705,0 0.86705,-0.28902 1.15607,-0.28902c0.28902,0 0.60003,0.1106 0.86705,0c0.75524,-0.31283 0.86705,-0.57803 1.15606,-0.57803c0.86705,0 1.39415,-0.14054 2.02312,-0.28902c0.28128,-0.0664 0.57803,0 1.15607,0c0.28902,0 0.57803,0 0.86705,0c0.28902,0 0.28902,0.28902 0.57803,0.28902l0.28901,0" id="svg_7" stroke="#000" fill="none"/>
  <path d="m33.2659,40.97976c-0.28902,0 -0.28902,0.28902 -0.28902,0.86705c0,0.28901 0,0.57803 0,0.86705c0,0.57803 0,0.86705 0,1.15607c0,0.57803 0,0.86705 0,1.15607c0,0.57803 0,0.86705 0,1.15607c0,0.28902 0,0.57803 0,0.86705c0,0.28901 0,0.57803 0,0.86705c0,0.28902 0,0.86705 0,1.15607c0,0.28902 0,0.86705 0,1.15607l0,0.28902l0,0.57803" id="svg_8" stroke="#000" fill="none"/>
  <path d="m40.20229,41.55779c0,0.28902 0,0.57803 0,0.86705c0,0.57803 0,0.86705 0,1.15607c0,0.28902 0,0.57803 0,0.86705c0,0.28902 0,0.86705 0,1.15607c0,0.28902 0,0.86705 0,1.44508c0,0.28901 0,0.57803 0,0.86705c0,0.28902 0,0.57803 0,0.86705c0,0.28902 -0.0886,1.28867 0.28902,1.44508c0.26702,0.1106 0.37367,0.37367 0.57803,0.57803c0.40873,0.40873 0.86705,0 1.15607,0c0.28902,0 0.57803,0 1.15607,0c0.57803,0 0.86705,0 1.15607,0l0.57803,0l0.28902,0" id="svg_9" stroke="#000" fill="none"/>
  <path stroke="#000" d="m32.97688,51.09534c-0.29607,0.28902 -0.59213,0.28902 -0.8882,0.28902c-0.8882,0 -1.18426,0 -1.48033,0c-0.29607,0 -0.83622,-0.26073 -1.18426,0.28902c-0.15565,0.24585 -0.59213,0.28902 -0.8882,0.28902c-0.8882,0 -1.18426,0 -1.77639,0c-0.29607,0 -1.18426,0.28902 -1.48033,0.28902c-0.29607,0 -1.14831,0.14262 -2.07246,0.28901c-0.58449,0.09259 -1.18426,0 -1.48033,0c-0.8882,0 -1.18426,0 -1.48033,0c-0.59213,0 -0.62111,0.23827 -1.18426,0.57803c-0.25185,0.15194 -0.61467,-0.1106 -0.8882,0c-0.38683,0.15641 -0.59213,0.28902 -1.18426,0.28902c-0.29607,0 -0.59213,0 -0.8882,0c-0.29607,0 -0.59213,0 -0.8882,0c-0.29606,0 -0.59213,0.28902 -0.8882,0.28902c-0.29607,0 -0.59213,0 -1.18426,0c-0.29607,0 -0.41061,0.26521 -1.18426,0.57803c-0.27353,0.1106 -0.59213,0 -0.8882,0c-0.29607,0 -0.6372,-0.2212 -1.18426,0c-0.38683,0.15641 -0.59213,0.57803 -0.8882,0.86705l-0.29606,0" id="svg_10" fill="none"/>
  <path d="m45.11557,49.93927c0.86705,0.28902 1.39415,0.71857 2.02312,0.86705c0.28128,0.0664 0.84801,0.0417 1.44508,0.28902c0.84438,0.34975 1.15607,0.28902 1.7341,0.57803c0.57803,0.28902 1.02576,0.85409 2.02312,1.15606c0.27662,0.08375 1.15607,0.28902 1.44508,0.57803c0.57803,0.57803 0.82449,0.62806 1.15607,0.86705c0.52427,0.37787 0.9517,0.66269 1.15606,0.86705c0.40873,0.40873 1.12097,0.43163 2.02312,0.57803c0.28529,0.0463 1.06747,0.71064 1.44508,0.86705c0.53403,0.2212 0.86705,0 1.44508,0l0.28902,0" id="svg_11" stroke="#000" fill="none"/>
  <path d="m43.67049,40.40173c0,0 0.28902,0.28902 0.28902,0.57803c0,0.28902 0,0.57803 0,0.86705c0,0.57803 0,0.86705 0,1.15606c0,0.28902 0,0.57803 0,0.86705c0,0.28902 0,0.57803 0,0.86705c0,0.57803 0,0.86705 0,1.15607c0,0.57803 0,0.86705 0,1.15607c0,0.28901 -0.57803,1.15606 -0.57803,1.7341l0,0.28902l-0.28902,0.28902" id="svg_12" stroke="#000" fill="none"/>
  <path transform="rotate(-62.0274 27.7957 47.3381)" stroke="#000" d="m28.99811,43.56755c1.29706,0 1.79342,0.48926 1.29706,0.70698c-0.70196,0.3079 -0.70106,0.48393 -1.29706,0.94264c-0.66635,0.51286 -1.92777,0.66545 -2.59413,1.1783c-0.298,0.22936 0,0.47132 0,0.70698c0,0.23566 -1.29706,0.47132 -1.29706,0.70698c0,0.23566 0,0.47132 0,0.70698c0,0.23566 0,0.47132 0,0.70698c0,0.47132 0,0.70698 0,0.94264c0,0.23566 0,0.47132 0,0.70698l0,0.23566" id="svg_13" fill="none"/>
  <path d="m39.91328,51.09534c0,0 -0.57803,0 -0.86705,0c-0.28902,0 -1.06747,-0.42162 -1.44508,-0.57803c-0.80105,-0.33181 -1.15607,-0.28902 -1.7341,-0.28902c-0.28902,0 -0.57803,0 -1.15607,0l-0.28901,0l-0.28902,0l-0.28902,0" id="svg_14" stroke="#000" fill="none"/>
 </g>
</svg>